<?xml version="1.0" encoding="iso-8859-1"?>
<!-- Generator: Adobe Illustrator 19.0.0, SVG Export Plug-In . SVG Version: 6.00 Build 0)  -->
<svg version="1.1" id="Capa_1" xmlns="http://www.w3.org/2000/svg" xmlns:xlink="http://www.w3.org/1999/xlink" x="0px" y="0px"
	 viewBox="0 0 512 512" style="enable-background:new 0 0 512 512;" xml:space="preserve">
<path style="fill:#ED694A;" d="M373.499,163.809c-10.67-11.649-27.258-27.372-34.315,8.13c-2.4,12.071-8.007,21.376-12.812,28.868
	c-5.179-26.212-20.761-53.343-35.443-71.636c-5.494-6.844-24.988-34.051-28.733-79.567c-0.559-6.793-8.628-9.983-13.675-5.401
	c-48.232,43.784-74.706,104.002-75.689,171.795c0,0-20.084-16.929-30.995-48.423c-2.938-8.481-14.308-10.099-19.241-2.6
	c-0.947,1.44-1.825,2.882-2.617,4.282c-37.213,65.8-55.114,145.705-38.565,220.045c27.67,124.497,210.704,159.303,307.603,81.054
	C483.822,393.8,453.686,251.311,373.499,163.809z"/>
<g>
	<path style="fill:#D8553A;" d="M107.171,397.118c-16.357-75.135,0.957-155.818,37.296-222.648c-0.919-2.217-1.803-4.51-2.629-6.894
		c-2.938-8.481-14.308-10.099-19.241-2.6c-0.947,1.44-1.824,2.882-2.616,4.282c-37.213,65.8-55.114,145.705-38.565,220.045
		c12.621,56.786,57.569,94.9,111.92,112.149C150.936,480.913,117.732,445.704,107.171,397.118z"/>
	<path style="fill:#D8553A;" d="M198.716,214.75c2.009-61.527,24.263-116.697,64.093-159.079c-0.274-2.334-0.477-4.421-0.608-6.005
		c-0.571-6.851-8.345-10.287-13.37-5.745c-46.585,42.118-74.979,101.727-75.998,172.075l8.719,6.771
		c4.294,3.335,10.112,3.19,14.213,0.135C198.212,220.828,198.563,217.698,198.716,214.75z"/>
</g>
<path style="fill:#F4A32C;" d="M344.242,254.818c-7.88-8.604-20.133-20.218-25.345,6.005c-1.772,8.915-5.915,15.789-9.462,21.323
	c-3.825-19.361-15.335-39.401-26.179-52.912c-4.058-5.055-18.456-25.15-21.223-58.771c-0.413-5.018-6.372-7.373-10.1-3.989
	c-35.625,32.339-55.18,76.819-55.905,126.891c0,0-14.835-12.504-22.893-35.766c-2.17-6.264-10.569-7.459-14.212-1.92
	c-0.699,1.063-1.348,2.129-1.933,3.163c-27.487,48.601-40.709,107.62-28.486,162.53c20.438,91.956,155.63,117.665,227.202,59.868
	C425.73,424.695,403.471,319.45,344.242,254.818z"/>
<path style="fill:#E89528;" d="M153.994,428.585c-10.822-53.676,0.387-111.271,24.152-159.231
	c-1.811-3.546-3.527-7.466-5.013-11.754c-2.17-6.264-10.569-7.46-14.212-1.921c-0.699,1.063-1.348,2.129-1.933,3.164
	c-27.486,48.601-40.707,107.62-28.486,162.529c9.506,42.768,43.837,71.196,85.041,83.567
	C184.268,490.258,161.218,464.464,153.994,428.585z"/>
<path style="fill:#F4D44E;" d="M317.534,337.904c-5.334-5.824-13.63-13.687-17.158,4.065c-1.199,6.036-4.004,10.688-6.406,14.434
	c-2.59-13.107-10.38-26.672-17.722-35.818c-2.746-3.422-12.493-17.025-14.367-39.784c-0.28-3.397-4.313-4.992-6.837-2.7
	c-24.116,21.892-37.353,52.002-37.844,85.897c0,0-10.043-8.465-15.497-24.211c-1.469-4.24-7.154-5.049-9.62-1.3
	c-0.474,0.719-0.912,1.441-1.309,2.141c-18.606,32.9-27.557,72.852-19.283,110.023c13.835,62.249,105.352,79.652,153.801,40.527
	c16.591-13.398,26.878-32.277,28.964-53.16C357.405,406.388,345.232,368.129,317.534,337.904z"/>
<path style="fill:#EAE9E8;" d="M292.749,415.006c-2.972-3.245-7.593-7.625-9.559,2.264c-0.668,3.363-2.23,5.955-3.569,8.042
	c-1.443-7.302-5.783-14.86-9.873-19.955c-1.53-1.907-6.961-9.486-8.005-22.165c-0.156-1.893-2.404-2.78-3.809-1.505
	c-13.435,12.197-20.811,28.972-21.084,47.856c0,0-5.595-4.716-8.634-13.489c-0.819-2.363-3.986-2.814-5.359-0.724
	c-0.264,0.401-0.508,0.803-0.728,1.193c-10.366,18.33-15.353,40.588-10.743,61.297c10.498,47.231,96.546,45.799,101.824-7.039
	C314.962,453.16,308.18,431.844,292.749,415.006z"/>
<path style="fill:#F7E7A1;" d="M231.364,487.194c-4.61-18.525,0.377-38.436,10.743-54.832c0.22-0.349,0.465-0.708,0.728-1.067
	c1.374-1.869,4.541-1.466,5.359,0.647c3.039,7.848,8.634,12.067,8.634,12.067c0.225-13.88,5.253-26.48,14.488-36.586
	c-2.065-2.86-8.383-9.756-9.574-24.229c-0.156-1.893-2.404-2.78-3.809-1.505c-13.435,12.197-20.811,28.972-21.084,47.856
	c0,0-5.595-4.716-8.634-13.488c-0.818-2.363-3.986-2.814-5.359-0.724c-0.264,0.401-0.508,0.803-0.728,1.193
	c-10.366,18.329-15.353,40.588-10.743,61.297c4.266,19.195,21.792,30.731,41.168,33.515
	C242.101,506.205,234.068,498.077,231.364,487.194z"/>
<g>
	<path style="fill:#D8553A;" d="M184.598,68.045c21.625-17.589,21.577-50.496,0-68.045C162.973,17.588,163.02,50.496,184.598,68.045
		z"/>
	<path style="fill:#D8553A;" d="M443.793,209.213c21.625-17.589,21.577-50.496,0-68.045
		C433.909,149.206,422.216,191.664,443.793,209.213z"/>
	<path style="fill:#D8553A;" d="M60.785,222.606c15.585-12.677,15.551-36.392,0-49.041
		C53.662,179.358,45.234,209.958,60.785,222.606z"/>
	<path style="fill:#D8553A;" d="M330.709,117.086c15.585-12.677,15.551-36.392,0-49.041
		C315.124,80.721,315.159,104.438,330.709,117.086z"/>
</g>
<path style="fill:#E89528;" d="M215.911,285.324c3.579-42.252,19.714-79.821,46.806-108.462c-0.274-2.076-0.505-4.207-0.685-6.398
	c-0.413-5.018-6.372-7.373-10.1-3.989c-28.23,25.626-46.348,58.882-53.022,96.497l-0.01-0.003c-0.495,2.79-1.109,6.854-1.497,10.047
	c0.001,0.003,0.002,0.005,0.004,0.008c-0.811,6.664-1.281,13.448-1.381,20.343C196.78,293.514,213.848,302.287,215.911,285.324z"/>
<g>
	<path style="fill:#E8C842;" d="M196.43,459.481c-7.355-34.725-1.091-71.755,13.461-103.84c-2.819-3.953-5.904-9.263-8.187-15.855
		c-1.47-4.24-7.154-5.049-9.621-1.3c-0.473,0.719-0.913,1.441-1.309,2.141c-18.606,32.9-27.557,72.852-19.283,110.023
		c6.48,29.152,29.997,48.468,58.148,56.749C213.253,496.521,200.858,480.42,196.43,459.481z"/>
	<path style="fill:#E8C842;" d="M243.751,348.824c2.438-17.425,9.565-36.624,20.784-52.675c-1.222-4.532-2.183-9.653-2.652-15.348
		c-0.28-3.397-4.314-4.992-6.837-2.7c-15.026,13.641-25.811,30.479-31.938,49.428l-0.016-0.004
		c-0.964,2.977-2.327,7.909-3.153,11.802c0.007-0.002,0.014-0.002,0.021-0.005c-1.692,7.944-2.633,16.188-2.756,24.675
		C230.696,365.681,241.857,362.34,243.751,348.824z"/>
</g>
<g>
</g>
<g>
</g>
<g>
</g>
<g>
</g>
<g>
</g>
<g>
</g>
<g>
</g>
<g>
</g>
<g>
</g>
<g>
</g>
<g>
</g>
<g>
</g>
<g>
</g>
<g>
</g>
<g>
</g>
</svg>
