<?xml version="1.0" encoding="UTF-8" standalone="no"?>
<!DOCTYPE svg PUBLIC "-//W3C//DTD SVG 1.1//EN"
 "http://www.w3.org/Graphics/SVG/1.1/DTD/svg11.dtd">
<!-- Generated by graphviz version 2.40.1 (20161225.0304)
 -->
<!-- Title: %3 Pages: 1 -->
<svg width="363pt" height="318pt"
 viewBox="0.00 0.00 363.00 318.00" xmlns="http://www.w3.org/2000/svg" xmlns:xlink="http://www.w3.org/1999/xlink">
<g id="graph0" class="graph" transform="scale(1 1) rotate(0) translate(4 314)">
<title>%3</title>
<polygon fill="#ffffff" stroke="transparent" points="-4,4 -4,-314 359,-314 359,4 -4,4"/>
<g id="clust1" class="cluster">
<title>cluster0</title>
<polygon fill="none" stroke="#ff0000" points="8,-80 8,-302 182,-302 182,-80 8,-80"/>
<text text-anchor="middle" x="95" y="-286.8" font-family="Hack" font-size="14.00" fill="#000000">hawck&#45;input user</text>
</g>
<g id="clust2" class="cluster">
<title>cluster1</title>
<polygon fill="none" stroke="#00ff00" points="190,-8 190,-155 347,-155 347,-8 190,-8"/>
<text text-anchor="middle" x="268.5" y="-139.8" font-family="Hack" font-size="14.00" fill="#000000"> &#160;&#160;&#160;&#160;desktop user</text>
</g>
<!-- MacroDaemon -->
<g id="node1" class="node">
<title>MacroDaemon</title>
<polygon fill="none" stroke="#000000" points="314,-124 198,-124 198,-88 314,-88 314,-124"/>
<text text-anchor="middle" x="256" y="-102.3" font-family="Hack" font-size="14.00" fill="#000000">Macro daemon</text>
</g>
<!-- KBDDaemon -->
<g id="node2" class="node">
<title>KBDDaemon</title>
<polygon fill="none" stroke="#000000" points="167,-199 27,-199 27,-163 167,-163 167,-199"/>
<text text-anchor="middle" x="97" y="-177.3" font-family="Hack" font-size="14.00" fill="#000000">Keyboard daemon</text>
</g>
<!-- MacroDaemon&#45;&gt;KBDDaemon -->
<g id="edge5" class="edge">
<title>MacroDaemon&#45;&gt;KBDDaemon</title>
<path fill="none" stroke="#000000" d="M226.2995,-124.0995C211.8919,-134.3424 194.2522,-146.7199 177,-155 174.025,-156.4279 170.9557,-157.7937 167.831,-159.0985"/>
<polygon fill="#000000" stroke="#000000" points="166.3579,-155.9167 158.3293,-162.8298 168.9166,-162.4323 166.3579,-155.9167"/>
</g>
<!-- LuaScript -->
<g id="node5" class="node">
<title>LuaScript</title>
<polygon fill="none" stroke="#000000" points="305.5,-52 206.5,-52 206.5,-16 305.5,-16 305.5,-52"/>
<text text-anchor="middle" x="256" y="-30.3" font-family="Hack" font-size="14.00" fill="#000000">Lua script</text>
</g>
<!-- MacroDaemon&#45;&gt;LuaScript -->
<g id="edge3" class="edge">
<title>MacroDaemon&#45;&gt;LuaScript</title>
<path fill="none" stroke="#000000" d="M250.0476,-87.8314C249.2972,-80.131 249.0763,-70.9743 249.3849,-62.4166"/>
<polygon fill="#000000" stroke="#000000" points="252.8792,-62.6161 250.024,-52.4133 245.8935,-62.1697 252.8792,-62.6161"/>
</g>
<!-- KBDDaemon&#45;&gt;MacroDaemon -->
<g id="edge6" class="edge">
<title>KBDDaemon&#45;&gt;MacroDaemon</title>
<path fill="none" stroke="#000000" d="M167.1967,-165.9643C176.7779,-162.8274 186.2926,-159.1791 195,-155 208.7478,-148.4018 222.7418,-139.2017 233.9847,-130.5532"/>
<polygon fill="#000000" stroke="#000000" points="236.4044,-133.0984 241.9963,-124.0995 232.0131,-127.6471 236.4044,-133.0984"/>
</g>
<!-- VirtualKeyboard -->
<g id="node4" class="node">
<title>VirtualKeyboard</title>
<polygon fill="none" stroke="#000000" points="171.5,-124 22.5,-124 22.5,-88 171.5,-88 171.5,-124"/>
<text text-anchor="middle" x="97" y="-102.3" font-family="Hack" font-size="14.00" fill="#000000">Virtual keyboard</text>
</g>
<!-- KBDDaemon&#45;&gt;VirtualKeyboard -->
<g id="edge1" class="edge">
<title>KBDDaemon&#45;&gt;VirtualKeyboard</title>
<path fill="none" stroke="#000000" d="M97,-162.8446C97,-154.3401 97,-144.0076 97,-134.4964"/>
<polygon fill="#000000" stroke="#000000" points="100.5001,-134.2481 97,-124.2482 93.5001,-134.2482 100.5001,-134.2481"/>
</g>
<!-- RealKeyboard -->
<g id="node3" class="node">
<title>RealKeyboard</title>
<polygon fill="none" stroke="#000000" points="173.5,-271 16.5,-271 16.5,-235 173.5,-235 173.5,-271"/>
<text text-anchor="middle" x="95" y="-249.3" font-family="Hack" font-size="14.00" fill="#000000">Physical keyboard</text>
</g>
<!-- RealKeyboard&#45;&gt;KBDDaemon -->
<g id="edge2" class="edge">
<title>RealKeyboard&#45;&gt;KBDDaemon</title>
<path fill="none" stroke="#000000" d="M95.5047,-234.8314C95.7186,-227.131 95.9729,-217.9743 96.2106,-209.4166"/>
<polygon fill="#000000" stroke="#000000" points="99.7094,-209.5066 96.4885,-199.4133 92.7121,-209.3122 99.7094,-209.5066"/>
</g>
<!-- LuaScript&#45;&gt;MacroDaemon -->
<g id="edge4" class="edge">
<title>LuaScript&#45;&gt;MacroDaemon</title>
<path fill="none" stroke="#000000" d="M261.976,-52.4133C262.7071,-60.0593 262.9203,-69.1084 262.6155,-77.5726"/>
<polygon fill="#000000" stroke="#000000" points="259.1048,-77.6264 261.9524,-87.8314 266.0902,-78.078 259.1048,-77.6264"/>
</g>
</g>
</svg>
